<svg xmlns="http://www.w3.org/2000/svg" viewBox="0 0 796.324 146.807"><defs><style>.a{fill:#d95767;}.b{fill:#b7b7b7;}.c{fill:#707070;opacity:0.2;}</style></defs><g transform="translate(0)"><path class="a" d="M626.414,0h157.91a12,12,0,0,1,12,12V113.264a12,12,0,0,1-12,12v-.012H732.5v15.171h18.35v6.384H693.764a13.989,13.989,0,0,0,11.747-6.382H726.5V125.252H707.764v-5.977h76.56v-.012a6,6,0,0,0,6-6V101.535h-82.56v-6h82.56V12a6,6,0,0,0-6-6H626.414a6,6,0,0,0-6,6V32.712h-6V12A12,12,0,0,1,626.414,0Z"/><path class="a" d="M611.255,32.712h66.158a12,12,0,0,1,12,12H689.4V67.02h-5.977V44.712h-.012a6,6,0,0,0-6-6H611.255a6.021,6.021,0,0,0-6.012,6v90.093h.012a6,6,0,0,0,5.989,6.012h47.178a13.988,13.988,0,0,0,10.922,5.977h-58.09a12,12,0,0,1-12-11.989h.012V44.712a11.983,11.983,0,0,1,11.966-12Zm7.565,95.327V51.478h51.828V67.02h6V45.478H612.819V134.04h31.913a3.191,3.191,0,1,1-3.191,3.191h0a3.191,3.191,0,0,1,3.191-3.191h11.226q-.054-.61-.055-1.235v-4.766Z"/><path class="a" d="M669.9,67.02h23.861a14,14,0,0,1,14,14h-.012v51.786h.012a13.982,13.982,0,0,1-13.977,13.988H669.9a13.984,13.984,0,0,1-14-13.967V81.02a14.022,14.022,0,0,1,.4-3.332v-.5h.133A14.014,14.014,0,0,1,669.9,67.02Zm-7.022,10.165h37.905a8.009,8.009,0,0,0-7.022-4.165H669.9a8.009,8.009,0,0,0-7.019,4.165Zm38.9,6H661.9v44.854h39.872V83.185Zm-.107,50.854H682.232a3.191,3.191,0,1,0,3.191,3.191h0a3.191,3.191,0,0,0-3.191-3.191H662a8.026,8.026,0,0,0,7.9,6.777h23.861a8.025,8.025,0,0,0,7.908-6.776Z"/><path class="a" d="M317.4,37.288l-27.815,29.28a13.172,13.172,0,0,1,0,14.47l27.816,29.28a13.165,13.165,0,1,1-4.338,4.122L285.25,85.159a13.079,13.079,0,0,1-3.661,1.464v22.229a13.157,13.157,0,1,1-6,0V86.623a13.1,13.1,0,0,1-3.662-1.464l-27.816,29.28a13.157,13.157,0,1,1-4.338-4.122l27.816-29.28a13.167,13.167,0,0,1,17.662-18.591l27.816-29.28A13.162,13.162,0,1,1,337,28.412L370.7,43.39H356l-21.425-9.522a13.194,13.194,0,0,1-7.5,4.885V60.981a13.157,13.157,0,1,1-6,0V38.752a13.079,13.079,0,0,1-3.662-1.464ZM400.241,56.52l21.029,9.346a13.165,13.165,0,1,1,13.5,20.757v22.229a13.157,13.157,0,1,1-6,0V86.623a13.091,13.091,0,0,1-3.661-1.464L397.3,114.438a13.157,13.157,0,1,1-4.338-4.122l27.816-29.279a13.2,13.2,0,0,1-1.931-9.716l-33.3-14.8Zm34.534,58.645h0a7.178,7.178,0,0,0-6,0h0a7.161,7.161,0,1,0,6,0Zm-41.823,3.847h0a7.194,7.194,0,0,0-3.013-3.511h-.005c-.11-.066-.223-.127-.338-.187l-.036-.019-.05-.025-.028-.014-.059-.029-.019-.009-.069-.033h-.01l-.078-.036h0l-.08-.035h-.008l-.072-.031-.018-.007-.063-.026-.027-.011-.054-.021-.037-.014-.045-.017-.165-.06-.066-.023a7.159,7.159,0,1,0,4.339,4.122Zm34.083-50.585h0a7.191,7.191,0,0,0-1.414,1.7l-.008.013-.011.019-.036.062-.008.013-.084.15h0l-.041.077h0l-.038.072-.006.012-.033.066-.009.018-.03.06-.012.025-.025.054-.014.031V70.8a7.157,7.157,0,0,0,1.631,8.237h0l.063.058.034.031.03.027.065.057h0l.061.052.039.032.027.023.067.055.007.006c.065.052.13.1.2.152l.011.008a7.165,7.165,0,1,0-.464-11.123Zm-102.97-1.791q-.3,0-.6.024a7.128,7.128,0,0,0-2.057.483l-.044.017h-.011l-.032.014-.044.018h0l-.039.017-.041.018h0l-.043.019-.034.015h-.009l-.043.02a7.172,7.172,0,1,0,3-.657Zm-41.758,1.04h0l-.074-.044h0l-.07-.041-.013-.008h0q-.125-.072-.254-.139l-.036-.019a7.169,7.169,0,0,0-9.917,9.041l.02.048.033.08.035.08.016.036.019.043.036.078h0l.037.078.019.039.019.039a7.15,7.15,0,0,0,5.96,3.965c4.2,0,7.625-2.794,7.625-7.15a7.159,7.159,0,0,0-3.445-6.124Zm48.923,54a7.17,7.17,0,0,0-9.48-6.782h0a7.166,7.166,0,1,0,9.48,6.781Zm-90.956,0a7.149,7.149,0,0,0-1.636-4.558h0a7.166,7.166,0,1,0,1.64,4.562Zm45.478,0a7.169,7.169,0,0,0-4.163-6.507h0a7.181,7.181,0,0,0-6,0h0a7.166,7.166,0,1,0,10.165,6.508Zm31.659-93.082.02.048.033.08.035.08.016.036.019.043.036.078h0l.037.079.019.039.019.039.039.077h0V29.2l.056.106v0l.018.034.042.076v.006l.039.069.026.045.018.03a7.165,7.165,0,0,0,4.815,3.4l.088.016h.024l.064.011.089.014.089.013h.029a7.37,7.37,0,0,0,1.569.041c5.754-.523,8.965-7.711,4.47-12.206A7.167,7.167,0,0,0,317.4,28.581Z"/><path class="b" d="M364.244,50.2a3,3,0,0,0-6,0v15a3,3,0,0,0,6,0v-15Zm5.98-3a3,3,0,1,0-.01,6h15.01a3,3,0,1,0,.01-6Zm27,0a3,3,0,1,0-.01,6h15.01a3,3,0,0,0,.01-6Zm27,0a3,3,0,0,0-.01,6h15.01a3,3,0,1,0,.01-6Zm27,0a3,3,0,1,0-.01,6h1.356v7.654a3,3,0,0,0,6,.012V50.2a3,3,0,0,0-3-3h-4.35Zm7.346,25.653a3,3,0,0,0-6-.012V87.855a3,3,0,1,0,6,.012V72.855Zm0,27a3,3,0,0,0-6-.012v15.011a3,3,0,0,0,6,.012V99.854Zm0,27a3,3,0,0,0-6-.012v15.011a3,3,0,1,0,6,.012Zm-13.49,19.509a3,3,0,0,0,.014-6H430.076a3,3,0,1,0-.014,6h15.013Zm-27,0a3,3,0,0,0,.014-6H403.077a3,3,0,1,0-.014,6h15.013Zm-27,0a3,3,0,0,0,.014-6H376.079a3,3,0,1,0-.014,6h15.014Zm-27,0a3,3,0,0,0,.164-6V131.2a3,3,0,0,0-6,0v12.168a3,3,0,0,0,3,3h2.836ZM358.243,119.2a3,3,0,0,0,6,0v-15a3,3,0,1,0-6,0Zm0-27a3,3,0,0,0,6,0v-15a3,3,0,0,0-6,0Z"/><path class="a" d="M82.588,97.653V92.2h6v5.452h7.266a5,5,0,0,1,5,5h-.012v26.8h.012a4.981,4.981,0,0,1-4.974,4.988H5a4.983,4.983,0,0,1-3.535-1.453v-.012A4.975,4.975,0,0,1,0,129.45H.012v-26.8a4.984,4.984,0,0,1,1.453-3.536h.012A4.973,4.973,0,0,1,5,97.653h7.265V92.2h6v5.452Zm12.278,6H5.988v24.809H94.866ZM5,55.4a4.974,4.974,0,0,0-3.524,1.465H1.465A4.983,4.983,0,0,0,.011,60.4V87.2H0a4.976,4.976,0,0,0,1.465,3.524v.012A4.984,4.984,0,0,0,5,92.189H95.855a4.981,4.981,0,0,0,5-4.963V87.2h-.012V60.4h.012a4.989,4.989,0,0,0-1.471-3.53l.006-.006A4.985,4.985,0,0,0,95.854,55.4H88.588V49.94h7.266v.012a5,5,0,0,0,5-5h-.012v-26.8h.012a4.989,4.989,0,0,0-1.471-3.53l.006-.006a4.985,4.985,0,0,0-3.536-1.465H5a4.974,4.974,0,0,0-3.524,1.465H1.465A4.983,4.983,0,0,0,.011,18.153v26.8h0a4.981,4.981,0,0,0,4.963,5H5V49.94h7.265V55.4Zm13.266,0V49.94H82.588V55.4Zm76.6,6V86.212H5.989V61.4Zm0-42.25V43.963H5.989V19.154Z"/><path class="c" d="M146.289,75.872a2,2,0,1,1-.005-4h23.785l-7.188-7.188a2,2,0,1,1,2.823-2.832h0l9.948,9.948a2.725,2.725,0,0,1,.574,2.934,1.991,1.991,0,0,1-.574,1.2L165.7,85.882a2,2,0,1,1-2.832-2.824h0l7.188-7.188Z"/><path class="c" d="M517.715,75.872a2,2,0,1,1-.005-4h23.785l-7.188-7.188a2,2,0,1,1,2.828-2.828l9.948,9.948a2.725,2.725,0,0,1,.574,2.934,1.991,1.991,0,0,1-.574,1.2l-9.948,9.948a2,2,0,1,1-2.828-2.828l7.188-7.188Z"/></g></svg>