<svg xmlns="http://www.w3.org/2000/svg" viewBox="0 0 60.583 42.359"><defs><style>.a{fill:#d95767;fill-rule:evenodd;}</style></defs><path class="a" d="M25.814,42.359H36.162V32.012H25.814ZM0,38.735H23.766v-3.1H0Zm38.21,0H60.427v-3.1H38.21Zm-4.123-8.772V26.336H58.538a2.043,2.043,0,0,0,2.045-2.049V2.049h0A2.042,2.042,0,0,0,58.538,0H3.758A2.042,2.042,0,0,0,1.713,2.048V24.291h0a2.042,2.042,0,0,0,2.048,2.045H27.889v3.628ZM17.04,16.8H14.947V15.77h-.029a2.336,2.336,0,0,1-2.136,1.2,2.234,2.234,0,0,1-1.642-.59,2.123,2.123,0,0,1-.6-1.58q0-2.086,2.471-2.409l1.948-.258q0-1.176-1.276-1.176a4.343,4.343,0,0,0-2.435.762V10.058a5.437,5.437,0,0,1,1.264-.421,6.6,6.6,0,0,1,1.46-.181q3.065,0,3.066,3.059V16.8Zm-2.079-2.913a1.56,1.56,0,0,1-.392,1.09,1.313,1.313,0,0,1-1.016.43,1.019,1.019,0,0,1-.712-.241.8.8,0,0,1-.261-.619q0-.835,1.078-.975l1.3-.167v.483Zm11,2.094a4.06,4.06,0,0,1-1.154,3.092,4.692,4.692,0,0,1-3.348,1.095,5.287,5.287,0,0,1-2.3-.414V17.892a4.4,4.4,0,0,0,2.234.645,2.4,2.4,0,0,0,1.735-.593,2.121,2.121,0,0,0,.617-1.606V15.77h-.026a2.473,2.473,0,0,1-2.234,1.2,2.69,2.69,0,0,1-2.177-.965,3.916,3.916,0,0,1-.805-2.591,4.362,4.362,0,0,1,.9-2.891,2.922,2.922,0,0,1,2.358-1.071,2.178,2.178,0,0,1,1.962,1.008h.026V9.63h2.213v6.35Zm-2.184-2.624a2.163,2.163,0,0,1-.423,1.4,1.351,1.351,0,0,1-1.111.528,1.3,1.3,0,0,1-1.092-.521,2.286,2.286,0,0,1-.4-1.417,2.706,2.706,0,0,1,.421-1.618,1.353,1.353,0,0,1,1.157-.573,1.311,1.311,0,0,1,1.047.478,1.749,1.749,0,0,1,.4,1.159v.569Zm8.854-1.73a1.917,1.917,0,0,0-.932-.217,1.349,1.349,0,0,0-1.128.528,2.313,2.313,0,0,0-.406,1.439V16.8h-2.21V9.63h2.21v1.331H30.2A1.914,1.914,0,0,1,32.086,9.5a1.449,1.449,0,0,1,.547.084v2.038Zm7.556,2.22H35.513q.111,1.559,1.967,1.56a3.847,3.847,0,0,0,2.079-.559v1.6a5.471,5.471,0,0,1-2.583.53,3.636,3.636,0,0,1-2.7-.963,3.639,3.639,0,0,1-.958-2.684A3.83,3.83,0,0,1,34.359,10.5a3.448,3.448,0,0,1,2.547-1.042,3.139,3.139,0,0,1,2.426.93,3.594,3.594,0,0,1,.858,2.528v.932Zm-2.051-1.36H35.5a2.007,2.007,0,0,1,.473-1.1,1.188,1.188,0,0,1,.92-.44q1.248,0,1.247,1.539Zm3.04,4.125V14.819a4.763,4.763,0,0,0,1.09.49,3.6,3.6,0,0,0,1.025.16,2.193,2.193,0,0,0,.927-.16.519.519,0,0,0,.339-.49.454.454,0,0,0-.153-.352,1.4,1.4,0,0,0-.4-.243,4.344,4.344,0,0,0-.528-.189q-.287-.086-.552-.189a5.6,5.6,0,0,1-.753-.347,2.192,2.192,0,0,1-.547-.433A1.688,1.688,0,0,1,41.3,12.5a2.275,2.275,0,0,1-.117-.762,1.972,1.972,0,0,1,.263-1.037,2.136,2.136,0,0,1,.7-.71,3.2,3.2,0,0,1,1-.406,5.235,5.235,0,0,1,1.173-.129,6.322,6.322,0,0,1,.966.074,7.059,7.059,0,0,1,.967.213v1.709a3.458,3.458,0,0,0-.9-.368,3.808,3.808,0,0,0-.942-.122A2.016,2.016,0,0,0,44,11a1.253,1.253,0,0,0-.342.112.583.583,0,0,0-.229.189.426.426,0,0,0-.083.263.483.483,0,0,0,.124.335,1.1,1.1,0,0,0,.33.241,2.979,2.979,0,0,0,.452.181l.495.165a6.432,6.432,0,0,1,.8.337,2.529,2.529,0,0,1,.612.428,1.675,1.675,0,0,1,.392.573A2.3,2.3,0,0,1,46.41,15.7a2.2,2.2,0,0,1-.734.734,3.34,3.34,0,0,1-1.059.414,5.87,5.87,0,0,1-1.243.129,6.446,6.446,0,0,1-2.191-.363Zm11.112.1a3.282,3.282,0,0,1-1.477.258q-2.337,0-2.339-2.428V11.262H47.314V9.63h1.161V8.084l2.206-.631V9.63h1.611v1.632H50.681v2.9q0,1.119.889,1.119a1.487,1.487,0,0,0,.722-.2V16.72Zm6.25-14.673Zm0,0h0V24.291H3.758V2.048h54.78Z" transform="translate(0 0)"/></svg>