<?xml version="1.0" standalone="no"?>
<!DOCTYPE svg PUBLIC "-//W3C//DTD SVG 20010904//EN"
 "http://www.w3.org/TR/2001/REC-SVG-20010904/DTD/svg10.dtd">
<svg version="1.0" xmlns="http://www.w3.org/2000/svg"
 width="700.000000pt" height="700.000000pt" viewBox="0 0 700.000000 700.000000"
 preserveAspectRatio="xMidYMid meet">
<metadata>
Created by potrace 1.11, written by Peter Selinger 2001-2013
</metadata>
<g transform="translate(0.000000,700.000000) scale(0.100000,-0.100000)"
fill="#000000" stroke="none">
<path d="M3418 5564 c-3 -2 -29 -6 -59 -9 -30 -3 -65 -7 -79 -10 -93 -14 -117
-18 -130 -20 -438 -88 -834 -270 -1170 -539 -96 -77 -278 -259 -359 -359 -254
-314 -428 -708 -476 -1077 -3 -25 -8 -63 -11 -84 -21 -136 2 -459 45 -639 l18
-77 -127 1 c-116 2 -131 0 -164 -20 -108 -67 -103 -220 8 -278 25 -13 59 -18
156 -22 8 -1 -8 -16 -35 -34 -92 -59 -116 -149 -64 -233 25 -41 93 -77 131
-70 12 3 30 5 39 5 8 1 72 37 141 80 l127 79 48 -70 c313 -463 812 -790 1398
-917 50 -11 113 -23 140 -27 28 -3 59 -8 70 -10 42 -8 195 -16 315 -17 117 0
317 10 330 18 3 2 30 6 60 9 273 29 726 188 973 343 188 117 331 225 452 341
654 631 871 1477 583 2272 -19 52 -27 85 -20 88 33 11 191 141 283 232 132
132 259 314 330 474 21 48 48 154 53 206 10 111 -95 213 -211 204 -94 -7 -139
-54 -193 -199 -46 -124 -67 -159 -136 -231 -63 -65 -114 -104 -189 -142 -60
-30 -176 -77 -206 -84 -9 -2 -67 49 -145 128 -194 197 -347 310 -578 429 -235
120 -519 211 -751 240 -27 4 -61 9 -75 12 -30 6 -516 13 -522 7z m482 -347
c14 -3 48 -8 75 -11 217 -30 455 -111 695 -236 195 -102 417 -294 562 -486 56
-73 143 -219 171 -287 l21 -50 -74 -69 c-65 -60 -127 -108 -324 -253 -48 -36
-69 -85 -54 -127 12 -35 44 -58 79 -58 27 0 114 52 212 127 32 25 60 44 61 42
7 -8 -109 -209 -191 -333 -161 -243 -346 -454 -533 -610 -47 -39 -87 -73 -90
-76 -3 -3 -36 -28 -75 -56 -217 -158 -423 -277 -637 -369 -94 -40 -115 -61
-122 -121 -4 -30 0 -42 24 -65 16 -16 38 -29 50 -29 12 0 59 16 105 35 602
249 1137 708 1487 1275 72 117 178 319 178 340 0 9 3 10 9 5 30 -32 35 -462 7
-585 -9 -41 -19 -82 -20 -90 -91 -396 -336 -778 -683 -1061 -204 -168 -491
-321 -750 -403 -96 -30 -276 -72 -348 -81 -27 -3 -63 -8 -80 -11 -93 -14 -309
-19 -445 -9 -270 19 -607 118 -829 244 -40 23 -75 41 -77 41 -9 0 -174 118
-225 160 -107 90 -280 273 -268 284 2 2 47 7 99 10 52 4 102 9 110 11 8 2 35
6 60 9 42 6 113 17 185 31 263 49 1021 319 1423 506 46 22 85 39 87 39 10 0
316 151 450 222 247 131 279 149 298 166 26 23 41 82 28 114 -10 27 -60 60
-83 56 -13 -3 -122 -59 -223 -115 -73 -41 -560 -283 -568 -283 -3 0 -34 -13
-69 -29 -207 -95 -436 -187 -688 -277 -356 -128 -619 -200 -900 -249 -51 -9
-303 -15 -329 -8 -16 4 -33 27 -57 76 l-33 69 31 61 c60 120 308 336 574 501
107 66 125 84 129 127 4 49 -5 69 -37 89 -23 14 -37 16 -60 9 -60 -17 -265
-149 -401 -258 -48 -39 -90 -71 -92 -71 -6 0 10 51 36 110 67 157 174 314 295
432 211 206 268 260 349 328 227 191 436 326 717 462 80 39 143 77 152 90 46
71 14 147 -62 148 -66 0 -433 -195 -649 -346 -80 -56 -271 -203 -309 -238 -7
-6 -94 -90 -194 -186 -239 -230 -315 -324 -415 -514 -67 -127 -141 -353 -144
-440 -1 -30 -13 -11 -22 36 -24 116 -32 380 -16 503 13 98 19 130 24 138 3 5
7 23 10 40 11 70 78 258 133 372 239 492 688 877 1250 1070 139 47 313 89 417
101 33 3 75 9 94 13 36 8 445 6 489 -2z"/>
<path d="M4335 4400 c-11 -5 -67 -23 -125 -40 -162 -49 -340 -114 -510 -187
-244 -104 -676 -319 -721 -359 -8 -8 -19 -14 -22 -14 -17 0 -119 -73 -133 -95
-20 -31 -13 -90 13 -116 38 -37 71 -30 196 43 155 91 413 224 557 288 63 29
129 58 145 66 114 52 425 162 601 213 87 26 121 51 130 97 15 81 -55 137 -131
104z"/>
</g>
</svg>
