<svg xmlns="http://www.w3.org/2000/svg" xmlns:xlink="http://www.w3.org/1999/xlink" width="512" height="512" viewBox="0 0 512 512">
  <defs>
    <clipPath id="clip-_Fav_512">
      <rect width="512" height="512"/>
    </clipPath>
  </defs>
  <g id="_Fav_512" data-name="!!!Fav – 512" clip-path="url(#clip-_Fav_512)">
    <rect width="512" height="512" fill="#fff"/>
    <g id="Group_7" data-name="Group 7" transform="translate(-88.822 -8.07)">
      <path id="Path_263" data-name="Path 263" d="M-1381.918-8667.322a14.387,14.387,0,0,1-12.329-6.815,14.457,14.457,0,0,1,4.2-19.722l7.061-4.448-9.652-.325a14.512,14.512,0,0,1-12.6-7.636,14.5,14.5,0,0,1,.511-14.715,14.508,14.508,0,0,1,12.324-6.755h.8l35.509,1.315a173.164,173.164,0,0,0,16.177,35.388l-34.76,21.8A14.414,14.414,0,0,1-1381.918-8667.322Zm410.852-192.388-.006-.016a171.936,171.936,0,0,0-28.867-46.266,119.461,119.461,0,0,0,31.877-8.8,66.2,66.2,0,0,0,30.779-24.456,93.883,93.883,0,0,0,6.873-17.616,17.959,17.959,0,0,1,17.4-13.547,19.757,19.757,0,0,1,4.471.557,17.929,17.929,0,0,1,11.008,8.286,17.886,17.886,0,0,1,1.964,13.632c-.6,2.158-1.225,4.24-1.849,6.158a20.291,20.291,0,0,1-.077,3.134,82.005,82.005,0,0,1-9.147,18.375,131.177,131.177,0,0,1-30.108,37.554,139.96,139.96,0,0,1-34.31,23Z" transform="translate(1495.82 9050.564)" fill="#383737"/>
      <path id="Path_279" data-name="Path 279" d="M98.421,346.2A172.4,172.4,0,0,1,5.976,238.414a32.181,32.181,0,0,1-1.035-3.84,172.222,172.222,0,0,1,26.106-139.6,217.177,217.177,0,0,1,122.9-86.667,28.492,28.492,0,0,1,3.114-.827A217,217,0,0,1,306.819,21.066l-.033.083a172.155,172.155,0,0,1,92.979,109.684A172.021,172.021,0,0,1,374.142,272.3a217.167,217.167,0,0,1-122.558,86.583,29.925,29.925,0,0,1-3.732.985A217,217,0,0,1,98.421,346.2Z" transform="translate(132.154 80.566)" fill="#c03b4d"/>
      <path id="Path_280" data-name="Path 280" d="M191.692,367.266A217,217,0,0,1,98.421,346.2,172.437,172.437,0,0,1,5.977,238.41a32.858,32.858,0,0,1-1.038-3.837A172.291,172.291,0,0,1,31.045,94.97,217.372,217.372,0,0,1,153.944,8.3c1.036-.329,2.084-.607,3.116-.826A217.047,217.047,0,0,1,306.816,21.064l-.026.08a172.008,172.008,0,0,1,92.979,109.687A171.837,171.837,0,0,1,374.14,272.3a217.353,217.353,0,0,1-122.554,86.583,31.664,31.664,0,0,1-3.731.99A217.146,217.146,0,0,1,191.692,367.266ZM236.865,17.633a186.663,186.663,0,0,0-72.742,14.676A204.54,204.54,0,0,0,60.381,121.69,142.72,142.72,0,0,0,47.243,236.973,127.74,127.74,0,0,0,126.932,315.3a187.646,187.646,0,0,0,133.207-4.69,204.575,204.575,0,0,0,103.906-89.385,142.724,142.724,0,0,0,13.133-115.279l-.158.026A127.735,127.735,0,0,0,297.33,27.646,187.184,187.184,0,0,0,236.865,17.633Z" transform="translate(132.146 80.568)" opacity="0.2"/>
      <path id="Path_220" data-name="Path 220" d="M576.509,244.584a167.219,167.219,0,0,0-54.3-41.8A192.466,192.466,0,0,0,455,184.133a209.3,209.3,0,0,0-71.746,6.074l-2.238.587-.613.187a209.9,209.9,0,0,0-65.139,30.665,192.678,192.678,0,0,0-48.913,49.607,167.276,167.276,0,0,0-25.977,62.475,149.013,149.013,0,0,0,2.079,64.554v.8l.266.959.265.986.241.746a148.862,148.862,0,0,0,30.532,56.88,167.2,167.2,0,0,0,53.709,41.082A192.516,192.516,0,0,0,394.52,518.38a209.435,209.435,0,0,0,71.56-5.967l.853-.187.906-.266.986-.32.718-.186a209.655,209.655,0,0,0,64.979-30.691A192.241,192.241,0,0,0,583.3,431.236a167,167,0,0,0,26.135-63.3,148.957,148.957,0,0,0-2.664-65.379h0a148.839,148.839,0,0,0-30.4-57.892m-40.548-69.909a198.682,198.682,0,0,1,64.5,49.661,180.073,180.073,0,0,1,36.792,70.041h0a180.043,180.043,0,0,1,3.171,79.02,198.343,198.343,0,0,1-30.931,75.21,224.335,224.335,0,0,1-56.774,57.759,240.971,240.971,0,0,1-73.957,35.008h0q-1.12.373-2.664.8l-2.185.479a240.44,240.44,0,0,1-82.056,6.794,224.02,224.02,0,0,1-78.007-21.607,198.95,198.95,0,0,1-63.78-48.834,180.1,180.1,0,0,1-36.9-68.79c-.265-.878-.506-1.571-.639-2.1s-.266-1.093-.479-2.1h0a180.152,180.152,0,0,1-2.45-78.035,198.562,198.562,0,0,1,30.744-74.144,224.341,224.341,0,0,1,56.907-57.84,240.911,240.911,0,0,1,74.6-35.113l1.971-.586,2.372-.559h0a240.6,240.6,0,0,1,81.737-6.766,224.025,224.025,0,0,1,78.219,21.632Z" transform="translate(-90.152 -87.028)" fill="#383737"/>
      <path id="Path_264" data-name="Path 264" d="M-1192.425-8740.349a7.8,7.8,0,0,1-4.257-4.812,9.866,9.866,0,0,1,5.487-11.752,296.812,296.812,0,0,0,92.415-60.168,292.787,292.787,0,0,0,53.693-75.433,260.416,260.416,0,0,1-21.233,15.334,7.732,7.732,0,0,1-6.335,1.238,8,8,0,0,1-5.187-3.876,9.713,9.713,0,0,1,3.5-12.4,257.051,257.051,0,0,0,23.291-17.19,158.614,158.614,0,0,0,18.984-18.468l.133.1a8.308,8.308,0,0,1,5.724-3.234,8.3,8.3,0,0,1,6.308,1.927,9.2,9.2,0,0,1,0,12.626q-3.531,4.074-7.313,7.923a8.483,8.483,0,0,1,3.3,4.5,8.568,8.568,0,0,1-.639,6.584,292.894,292.894,0,0,1-161.459,157.023,8.035,8.035,0,0,1-3.317.734A7.486,7.486,0,0,1-1192.425-8740.349Zm-211.3-21.771-.136.094a9.1,9.1,0,0,1-1.174-12.511,8.6,8.6,0,0,1,5.506-3.76,8.824,8.824,0,0,1,6.526,1.361c14.734,11.3,50.62,6.058,91.507-5.941a885.723,885.723,0,0,0,173.168-74.845,7.935,7.935,0,0,1,6.341-1.308,7.65,7.65,0,0,1,5.131,3.961,9.766,9.766,0,0,1-3.633,12.387,905.108,905.108,0,0,1-177.772,76.957c-26.023,7.667-50.6,12.595-70.457,12.595C-1383.412-8753.13-1395.523-8755.83-1403.728-8762.12Zm9.732-18.606a7.9,7.9,0,0,1-5.749-3.071,7.946,7.946,0,0,1-1.5-6.352,70.787,70.787,0,0,1,7.081-14.336,7.622,7.622,0,0,1-.555-2.793,138.984,138.984,0,0,1,47.944-88.183,325.035,325.035,0,0,1,106.56-74.365h.137a7.657,7.657,0,0,1,6.441.263,7.75,7.75,0,0,1,3.984,5.083,9.876,9.876,0,0,1-6.013,11.466,304.469,304.469,0,0,0-99.689,69.793,122.641,122.641,0,0,0-38.706,57.839,255.655,255.655,0,0,1,43.891-30.923h.025a7.729,7.729,0,0,1,6.45-.349,7.719,7.719,0,0,1,4.462,4.619,9.914,9.914,0,0,1-5.082,12,232.22,232.22,0,0,0-42.168,30.429,61.919,61.919,0,0,0-17.863,20.386,9.606,9.606,0,0,1-9.545,8.5Zm124.051-88.392a7.869,7.869,0,0,1-5.084-4.054,9.789,9.789,0,0,1,3.772-12.387,552.6,552.6,0,0,1,68-35.434,492.13,492.13,0,0,1,69.286-24.951l.161.077a7.671,7.671,0,0,1,6.337,1,7.677,7.677,0,0,1,3.4,5.447,9.912,9.912,0,0,1-7.032,10.916,468.986,468.986,0,0,0-66.77,23.961,537.306,537.306,0,0,0-65.676,34.219,7.916,7.916,0,0,1-4.523,1.416A7.235,7.235,0,0,1-1269.946-8869.118Z" transform="translate(1546.007 9117.821)" fill="#383737"/>
    </g>
  </g>
</svg>
