<?xml version="1.0" encoding="utf-8"?>
<!-- Generator: Adobe Illustrator 22.1.0, SVG Export Plug-In . SVG Version: 6.00 Build 0)  -->
<svg version="1.1" id="Layer_1" xmlns="http://www.w3.org/2000/svg" xmlns:xlink="http://www.w3.org/1999/xlink" x="0px" y="0px"
	 width="123.4328px" height="74.377px" viewBox="0 0 123.4328 74.377" style="enable-background:new 0 0 123.4328 74.377;"
	 xml:space="preserve">
<style type="text/css">
	.st0{fill:none;}
	.st1{fill:#383737;}
	.st2{fill:#C03B4D;}
	.st3{opacity:0.2;enable-background:new    ;}
</style>
	<title>logo</title>
	<g id="Layer_2_1_">
	<g id="Layer_1-2">
		<g id="logo">
			<rect class="st0" width="123.4328" height="74.377"/>
			<g>
				<path class="st1" d="M123.4328,45.55c-0.8883,0.6086-1.8777,1.0546-2.922,1.317c-1.0649,0.2975-2.1644,0.4532-3.27,0.463
					c-2.1139,0.1494-4.187-0.6362-5.671-2.149c-1.3488-1.7923-2.0022-4.0128-1.839-6.25v-7.857h-2.478v-5.187h2.478v-4.335
					l7.668-0.889v5.224h4.645l-0.774,5.187h-3.87v7.778c-0.0583,0.667,0.0905,1.3356,0.426,1.915
					c0.2813,0.3717,0.7273,0.5815,1.193,0.561c0.6814-0.0098,1.3486-0.1966,1.936-0.542L123.4328,45.55z M98.1608,25.115
					c1.4938-0.0047,2.9781,0.2372,4.393,0.716c1.2957,0.4159,2.4984,1.0795,3.541,1.954l-2.709,4.141
					c-0.7513-0.4648-1.5575-0.8343-2.4-1.1c-0.8122-0.2649-1.6607-0.4022-2.515-0.407c-1.1607,0-1.741,0.3097-1.741,0.929
					c-0.0092,0.2351,0.0741,0.4645,0.232,0.639c0.3274,0.2695,0.6997,0.4791,1.1,0.619c0.5807,0.2453,1.516,0.561,2.806,0.947
					c1.7012,0.4447,3.2726,1.2868,4.585,2.457c1.048,1.1385,1.5858,2.6556,1.489,4.2c0.0161,1.3458-0.4277,2.6567-1.258,3.716
					c-0.9123,1.1378-2.116,2.007-3.483,2.515c-1.6111,0.6161-3.3253,0.9178-5.05,0.889c-1.7347,0.0121-3.458-0.2828-5.09-0.871
					c-1.4883-0.5209-2.8524-1.345-4.006-2.42l3.638-4.025c0.7693,0.6158,1.6234,1.1173,2.536,1.489
					c0.8633,0.3631,1.7894,0.5537,2.726,0.561c0.5551,0.0314,1.1089-0.082,1.607-0.329c0.3529-0.1832,0.5706-0.5515,0.561-0.949
					c0.0195-0.2987-0.07-0.5943-0.252-0.832c-0.2927-0.2676-0.642-0.4655-1.022-0.579c-0.516-0.194-1.419-0.4843-2.709-0.871
					c-4-1.1873-6-3.4207-6-6.7c-0.0145-1.2201,0.3584-2.4133,1.065-3.408c0.7914-1.0713,1.8646-1.9021,3.1-2.4
					c1.5414-0.6247,3.1954-0.9237,4.858-0.878L98.1608,25.115z M80.2408,33.793c0.0256-0.9717-0.1661-1.9368-0.561-2.825
					c-0.3662-0.6809-1.1042-1.0767-1.874-1.005c-0.7481-0.0493-1.4698,0.2857-1.915,0.889c-0.5374,0.9859-0.8228,2.0892-0.831,3.212
					h5.187L80.2408,33.793z M87.7878,35.96c-0.0103,0.8148-0.062,1.6285-0.155,2.438h-12.54c0.0475,1.0699,0.5145,2.078,1.3,2.806
					c0.8504,0.5297,1.8452,0.7801,2.845,0.716c0.7572-0.0069,1.5063-0.1579,2.207-0.445c0.8736-0.366,1.7043-0.8272,2.477-1.375
					l3.1,4.18c-2.3874,1.9975-5.4073,3.081-8.52,3.057c-3.0799,0.2215-6.1075-0.884-8.32-3.038
					c-1.9528-2.2063-2.9687-5.0868-2.832-8.03c-0.0248-1.9384,0.3784-3.8584,1.181-5.623c0.753-1.6518,1.9688-3.0499,3.5-4.025
					c1.6865-1.0313,3.6371-1.5487,5.613-1.489c1.8611-0.0438,3.7017,0.3958,5.342,1.276c1.5259,0.8556,2.7595,2.1499,3.541,3.715
					c0.8808,1.8165,1.3126,3.8179,1.259,5.836L87.7878,35.96z M66.1478,25.239c0.7105,0.004,1.416,0.119,2.091,0.341l-1.193,7.392
					c-0.6152-0.1937-1.2551-0.298-1.9-0.31c-0.9793-0.0712-1.9297,0.3499-2.535,1.123c-0.6673,1.0211-1.1217,2.1662-1.336,3.367
					v9.406h-7.668v-20.67h6.7l0.619,3.87c0.3766-1.2702,1.1009-2.4097,2.091-3.29c0.8574-0.7841,1.9751-1.2224,3.137-1.23
					L66.1478,25.239z"/>
				<path class="st1" d="M9.9248,41.958c0.4561,0.0053,0.9052-0.1125,1.3-0.341c0.3885-0.2224,0.7247-0.5255,0.986-0.889v-3.067
					h-0.813c-0.8413-0.0643-1.6813,0.1391-2.4,0.581c-0.5363,0.4294-0.826,1.0959-0.774,1.781
					c-0.0276,0.5123,0.1384,1.0163,0.465,1.412c0.314,0.3509,0.7686,0.5428,1.239,0.523 M19.6807,39.867
					c-0.0324,0.5493,0.0603,1.0987,0.271,1.607c0.2131,0.3751,0.5581,0.6574,0.968,0.792l-1.547,4.916
					c-1.1755-0.0503-2.3313-0.3196-3.408-0.794c-0.9125-0.4586-1.6671-1.1795-2.167-2.07c-1.3939,2.041-3.7654,3.19-6.231,3.019
					c-1.828,0.0823-3.6112-0.581-4.941-1.838c-1.2602-1.2491-1.9399-2.9688-1.874-4.742c-0.1072-2.0766,0.8576-4.0633,2.556-5.263
					c2.232-1.3538,4.826-1.9891,7.431-1.82h1.47v-0.511c0.0936-0.7528-0.1307-1.5105-0.619-2.091
					c-0.7047-0.4394-1.5362-0.6302-2.362-0.542c-0.8024,0.0206-1.601,0.1177-2.385,0.29c-1.0025,0.2022-1.9914,0.4667-2.961,0.792
					l-1.665-4.877c2.6036-1.0248,5.3695-1.5755,8.167-1.626c2.5062-0.2153,5.0094,0.4472,7.081,1.874
					c1.5673,1.4831,2.3787,3.5961,2.207,5.747L19.6807,39.867z"/>
				<path class="st1" d="M47.2488,43.512c0.5389,0.3736,1.0121,0.8343,1.4,1.363c0.6772,0.9257,1.0358,2.0461,1.022,3.193
					c0.0366,2.1558-1.0963,4.1626-2.961,5.245c-2.5952,1.4294-5.5426,2.0934-8.5,1.915c-2.155,0.0797-4.3078-0.2084-6.366-0.852
					c-1.3088-0.3966-2.4424-1.2295-3.212-2.36c-0.6355-1.1187-0.9504-2.391-0.91-3.677h6.134
					c0.2387,0.0193,0.479,0.0337,0.721,0.043c-0.0224,0.4199,0.0851,0.8365,0.308,1.193c0.2897,0.3323,0.6874,0.5519,1.123,0.62
					c0.8034,0.1518,1.6208,0.2166,2.438,0.193c0.9615,0.0864,1.929-0.0805,2.806-0.484c0.4522-0.2758,0.7247-0.7704,0.716-1.3
					c0.0074-0.4238-0.1867-0.826-0.523-1.084c-0.0764-0.0619-0.1592-0.1156-0.247-0.16c2.2788-0.8161,4.3441-2.1359,6.042-3.861"/>
				<path class="st1" d="M21.9097,42.0975c-0.5126,0.0004-0.9285-0.4149-0.9289-0.9275c-0.0002-0.3092,0.1535-0.5981,0.41-0.7707
					l0.451-0.2842l-0.6169-0.0215c-0.514-0.0071-0.9248-0.4296-0.9177-0.9436c0.0071-0.5097,0.4228-0.9188,0.9326-0.9178h0.051
					l2.271,0.084c0.2587,0.7908,0.6059,1.5498,1.035,2.2627l-2.223,1.3945C22.2329,42.0556,22.0727,42.0984,21.9097,42.0975z
					 M48.1867,29.7977L48.1867,29.7977c-0.454-1.0782-1.0772-2.0771-1.8459-2.959c0.7023-0.092,1.3885-0.281,2.0389-0.5615
					c0.7995-0.3102,1.4861-0.8557,1.969-1.5644c0.184-0.36,0.3314-0.7376,0.4399-1.127c0.1289-0.5095,0.5874-0.8663,1.113-0.8662
					c0.0964,0.0008,0.1924,0.0129,0.286,0.0361c0.613,0.1616,0.9811,0.787,0.825,1.4014c-0.0389,0.1377-0.078,0.2715-0.118,0.3936
					c0.0035,0.0668,0.0019,0.1337-0.005,0.2002c-0.145,0.4149-0.3415,0.8099-0.585,1.1758
					c-0.4881,0.9123-1.1412,1.7262-1.926,2.4004c-0.6543,0.5966-1.3938,1.0926-2.194,1.4717L48.1867,29.7977z"/>
				<path class="st2" d="M29.3768,44.88c-2.8699-1.3418-5.0239-3.8532-5.913-6.894c-0.0271-0.0812-0.0492-0.164-0.066-0.248
					c-0.7533-3.0777-0.1449-6.3307,1.67-8.928c1.8766-2.724,4.6638-4.6888,7.86-5.541c0.0656-0.0214,0.1324-0.0391,0.2-0.053
					c3.1942-0.8612,6.591-0.553,9.578,0.869v0.005c5.4143,2.4594,7.8097,8.8424,5.3503,14.2567
					c-0.2882,0.6344-0.6373,1.2393-1.0423,1.8063c-1.8716,2.7187-4.6503,4.682-7.838,5.538
					c-0.0782,0.0261-0.1581,0.0472-0.239,0.063c-3.1882,0.8544-6.5766,0.5445-9.557-0.874L29.3768,44.88z"/>
				<path class="st3" d="M35.3418,46.227c-2.0638,0.0001-4.1015-0.4601-5.965-1.347c-2.8697-1.342-5.0237-3.8534-5.913-6.894
					c-0.027-0.0812-0.0491-0.1641-0.066-0.248c-0.7528-3.0777-0.1444-6.3305,1.67-8.928c1.8773-2.7234,4.6642-4.688,7.86-5.541
					c0.0657-0.021,0.1325-0.0387,0.2-0.053c3.1942-0.8608,6.5909-0.5527,9.578,0.869v0.005
					c5.4143,2.4594,7.8097,8.8424,5.3503,14.2567c-0.2882,0.6344-0.6373,1.2393-1.0423,1.8063
					c-1.8723,2.718-4.6507,4.6811-7.838,5.538c-0.0783,0.0258-0.1581,0.0469-0.239,0.063
					C37.7642,46.0681,36.5556,46.2271,35.3418,46.227z M38.2308,23.866c-1.5979-0.0015-3.1798,0.3178-4.652,0.939
					c-2.8027,1.0865-5.1457,3.105-6.635,5.716c-1.3114,2.2278-1.6167,4.9073-0.84,7.373c0.8406,2.3643,2.721,4.2111,5.1,5.009
					c2.7807,0.9459,5.8117,0.8392,8.519-0.3c2.8065-1.0849,5.1532-3.104,6.645-5.717c1.3114-2.2278,1.6167-4.9073,0.84-7.373h-0.01
					c-0.8405-2.3643-2.7209-4.2112-5.1-5.009C40.8525,24.0804,39.546,23.8648,38.2308,23.866z"/>
				<path class="st1" d="M45.7348,27.663c-0.9608-1.1211-2.1433-2.0312-3.473-2.673c-1.3487-0.6563-2.806-1.0606-4.3-1.193
					c-1.5406-0.1368-3.0932-0.0055-4.589,0.388l-0.143,0.038l-0.039,0.012c-1.4912,0.4089-2.9006,1.0723-4.166,1.961
					c-1.2268,0.8588-2.2868,1.9341-3.128,3.173c-0.8206,1.2062-1.3858,2.5674-1.661,4c-0.2581,1.3695-0.2127,2.7789,0.133,4.129
					v0.051l0.017,0.061l0.017,0.063l0.015,0.048c0.377,1.3409,1.0437,2.5828,1.953,3.638c0.9541,1.1005,2.123,1.9944,3.435,2.627
					c1.3453,0.655,2.7987,1.0593,4.289,1.193c1.5363,0.137,3.0847,0.0078,4.577-0.382l0.055-0.012l0.058-0.017l0.063-0.02
					l0.046-0.012c1.488-0.4103,2.894-1.0743,4.156-1.963c1.2238-0.8577,2.2811-1.9312,3.12-3.168
					c0.8311-1.2197,1.4004-2.5983,1.672-4.049c0.2539-1.389,0.1958-2.8172-0.17-4.181l0,0c-0.3659-1.3621-1.0299-2.6259-1.944-3.7
					 M43.1347,23.204c1.5795,0.7626,2.9839,1.844,4.125,3.176c1.1068,1.3004,1.9105,2.8307,2.353,4.48l0,0
					c0.4404,1.649,0.5087,3.3753,0.2,5.054c-0.3201,1.7227-0.9936,3.3605-1.978,4.81c-0.9762,1.4414-2.2066,2.6931-3.631,3.694
					c-1.4375,1.0105-3.0372,1.7678-4.73,2.239l0,0c-0.048,0.016-0.1047,0.033-0.17,0.051l-0.14,0.031
					c-1.7113,0.4457-3.4867,0.5929-5.248,0.435c-1.7331-0.1539-3.4237-0.6222-4.989-1.382c-1.5578-0.7529-2.9458-1.8155-4.079-3.123
					c-1.0989-1.2765-1.9045-2.7784-2.36-4.4c-0.017-0.056-0.032-0.1-0.041-0.135s-0.017-0.07-0.031-0.135l0,0
					c-0.4166-1.6322-0.4702-3.3359-0.157-4.991c0.3257-1.698,0.9947-3.3116,1.966-4.742c0.9783-1.4443,2.2118-2.6982,3.64-3.7
					c1.4495-1.0173,3.0634-1.777,4.771-2.246l0.126-0.037l0.152-0.036l0,0c1.705-0.4425,3.4734-0.589,5.228-0.433
					c1.737,0.1532,3.4314,0.6223,5,1.384L43.1347,23.204z"/>
				<path class="st1" d="M37.2438,41.7235c-0.1306-0.0588-0.2296-0.1708-0.272-0.3076c-0.0873-0.3031,0.0626-0.6241,0.351-0.7519
					c2.1933-0.9022,4.1982-2.2072,5.911-3.8477c1.3933-1.4161,2.5525-3.0449,3.434-4.8252
					c-0.4367,0.3496-0.8893,0.6768-1.358,0.9814c-0.1174,0.0833-0.2649,0.1121-0.405,0.0791
					c-0.1407-0.0322-0.2612-0.1222-0.332-0.248c-0.1368-0.2832-0.0407-0.624,0.224-0.794c0.5171-0.3381,1.0145-0.7052,1.49-1.0996
					c0.4368-0.3594,0.8429-0.7547,1.214-1.1816l0.009,0.0068c0.1769-0.2335,0.5095-0.2793,0.743-0.1025
					c0.0078,0.0059,0.0155,0.0121,0.023,0.0185c0.2141,0.2266,0.2141,0.581,0,0.8076c-0.1507,0.1738-0.3067,0.3428-0.468,0.5068
					c0.2289,0.1586,0.3021,0.4638,0.1701,0.709c-1.966,4.5901-5.6831,8.2053-10.326,10.043
					c-0.0667,0.0301-0.1389,0.0461-0.212,0.0469C37.3723,41.7648,37.3055,41.7508,37.2438,41.7235z M23.7298,40.331l-0.009,0.0059
					c-0.2345-0.2038-0.2675-0.5559-0.075-0.7998c0.0805-0.1241,0.2072-0.211,0.3521-0.2412c0.1451-0.026,0.2947,0.0055,0.417,0.0879
					c0.942,0.7217,3.2371,0.3867,5.852-0.3809c3.8516-1.1963,7.5644-2.8008,11.075-4.7861c0.117-0.085,0.265-0.1152,0.406-0.083
					c0.1415,0.0313,0.2617,0.124,0.328,0.2529c0.1326,0.285,0.0328,0.6242-0.233,0.792c-3.603,2.0426-7.4148,3.6927-11.37,4.9219
					c-1.4585,0.4719-2.9744,0.7429-4.506,0.8057c-0.7877,0.0548-1.5721-0.1456-2.2371-0.5713L23.7298,40.331z M24.3528,39.1416
					c-0.2854-0.0235-0.4976-0.2739-0.4741-0.5593c0.0013-0.0158,0.0033-0.0315,0.0061-0.0472
					c0.1163-0.3216,0.2682-0.6292,0.453-0.917c-0.0232-0.0568-0.0354-0.1174-0.036-0.1787c0.2838-2.1962,1.3772-4.2073,3.066-5.6397
					c1.9282-2.028,4.2463-3.6457,6.815-4.7559h0.009c0.1331-0.0553,0.2838-0.0492,0.412,0.0166
					c0.1278,0.0666,0.2208,0.1851,0.255,0.3252c0.0722,0.3062-0.0919,0.6189-0.385,0.7334
					c-2.4041,1.0436-4.5728,2.5619-6.376,4.4639c-1.1649,0.9686-2.0245,2.2537-2.475,3.7002
					c0.8635-0.756,1.8044-1.4189,2.807-1.9775l0,0c0.2428-0.1273,0.5428-0.0338,0.6702,0.209
					c0.0107,0.0205,0.02,0.0417,0.0278,0.0634c0.0987,0.3011-0.0401,0.6289-0.325,0.7676c-0.97,0.5457-1.8756,1.1985-2.7,1.9463
					c-0.4717,0.3439-0.8617,0.7877-1.142,1.2998c-0.0359,0.3098-0.2981,0.5436-0.61,0.544L24.3528,39.1416z M32.2868,33.4882
					c-0.141-0.0352-0.2596-0.13-0.325-0.2598c-0.1306-0.287-0.0273-0.6264,0.241-0.792c1.3953-0.8556,2.8484-1.613,4.349-2.2666
					c1.4351-0.6428,2.9162-1.1775,4.431-1.5996h0.01c0.2632-0.0728,0.5356,0.0816,0.6084,0.3448
					c0.0061,0.0221,0.0107,0.0446,0.0137,0.0673c0.0454,0.3129-0.1465,0.6115-0.45,0.7002c-1.4598,0.4026-2.8872,0.9148-4.27,1.5322
					c-1.4483,0.6329-2.8515,1.3641-4.2,2.1885c-0.0846,0.0593-0.1856,0.0911-0.2889,0.0908
					c-0.0397,0.0042-0.0797,0.0035-0.1193-0.002L32.2868,33.4882z"/>
			</g>
		</g>
	</g>
</g>
</svg>