<svg xmlns="http://www.w3.org/2000/svg" width="170.765" height="74.377" viewBox="0 0 170.765 74.377"><defs><style>.cls-1{fill:none;}.cls-2{fill:#383737;}.cls-3{fill:#c03b4d;}.cls-4{opacity:0.2;isolation:isolate;}</style></defs><title>logo</title><g id="Layer_2" data-name="Layer 2"><g id="Layer_1-2" data-name="Layer 1"><g id="logo"><rect class="cls-1" width="170.765" height="74.377"/><path class="cls-2" d="M146.826,45.55a9.08922,9.08922,0,0,1-2.922,1.317,12.56725,12.56725,0,0,1-3.27.463,7.23,7.23,0,0,1-5.671-2.149,9.27187,9.27187,0,0,1-1.839-6.25V31.074h-2.478V25.887h2.478V21.552l7.668-.889v5.224h4.645l-.774,5.187h-3.87v7.778a3.2559,3.2559,0,0,0,.426,1.915,1.418,1.418,0,0,0,1.193.561,3.93081,3.93081,0,0,0,1.936-.542ZM121.554,25.115a13.57171,13.57171,0,0,1,4.393.716,10.50587,10.50587,0,0,1,3.541,1.954l-2.709,4.141a10.64955,10.64955,0,0,0-2.4-1.1,8.263,8.263,0,0,0-2.515-.407q-1.741,0-1.741.929a.9.9,0,0,0,.232.639,3.6,3.6,0,0,0,1.1.619q.871.368,2.806.947a11.11291,11.11291,0,0,1,4.585,2.457,5.67692,5.67692,0,0,1,1.489,4.2,5.90884,5.90884,0,0,1-1.258,3.716,8.066,8.066,0,0,1-3.483,2.515,13.50688,13.50688,0,0,1-5.05.889,14.71128,14.71128,0,0,1-5.09-.871,11.39983,11.39983,0,0,1-4.006-2.42l3.638-4.025a10.23906,10.23906,0,0,0,2.536,1.489,7.1747,7.1747,0,0,0,2.726.561,3.20907,3.20907,0,0,0,1.607-.329,1.041,1.041,0,0,0,.561-.949,1.23611,1.23611,0,0,0-.252-.832,2.63,2.63,0,0,0-1.022-.579q-.774-.291-2.709-.871-6-1.781-6-6.7a5.76708,5.76708,0,0,1,1.065-3.408,7.2,7.2,0,0,1,3.1-2.4,12.05205,12.05205,0,0,1,4.858-.878Zm-17.92,8.678a6.53,6.53,0,0,0-.561-2.825,1.925,1.925,0,0,0-1.874-1.005,2.2,2.2,0,0,0-1.915.889,6.81494,6.81494,0,0,0-.831,3.212h5.187Zm7.547,2.167a24.03577,24.03577,0,0,1-.155,2.438H98.486a4.072,4.072,0,0,0,1.3,2.806,4.8,4.8,0,0,0,2.845.716,5.96321,5.96321,0,0,0,2.207-.445,12.90527,12.90527,0,0,0,2.477-1.375l3.1,4.18a13.11994,13.11994,0,0,1-8.52,3.057,10.815,10.815,0,0,1-8.32-3.038,11.3231,11.3231,0,0,1-2.832-8.03,13.17409,13.17409,0,0,1,1.181-5.623,9.389,9.389,0,0,1,3.5-4.025,10.17089,10.17089,0,0,1,5.613-1.489,10.76287,10.76287,0,0,1,5.342,1.276,8.731,8.731,0,0,1,3.541,3.715,12.609,12.609,0,0,1,1.259,5.836ZM89.541,25.239a6.815,6.815,0,0,1,2.091.341l-1.193,7.392a6.74463,6.74463,0,0,0-1.9-.31,2.948,2.948,0,0,0-2.535,1.123,9.0679,9.0679,0,0,0-1.336,3.367v9.406H77V25.888h6.7l.619,3.87a7.1049,7.1049,0,0,1,2.091-3.29,4.694,4.694,0,0,1,3.137-1.23Z"/><path class="cls-2" d="M33.318,41.958a2.536,2.536,0,0,0,1.3-.341,3.12778,3.12778,0,0,0,.986-.889V37.661h-.813a4.00008,4.00008,0,0,0-2.4.581,2.08,2.08,0,0,0-.774,1.781,2.045,2.045,0,0,0,.465,1.412,1.574,1.574,0,0,0,1.239.523m9.753-2.091a3.638,3.638,0,0,0,.271,1.607,1.736,1.736,0,0,0,.968.792l-1.547,4.916a9.454,9.454,0,0,1-3.408-.794,5.124,5.124,0,0,1-2.167-2.07,6.962,6.962,0,0,1-6.231,3.019,6.751,6.751,0,0,1-4.941-1.838,6.345,6.345,0,0,1-1.874-4.742,6.061,6.061,0,0,1,2.556-5.263,12.73806,12.73806,0,0,1,7.431-1.82h1.47v-.511a2.726,2.726,0,0,0-.619-2.091,3.718,3.718,0,0,0-2.362-.542,12.61868,12.61868,0,0,0-2.385.29,24.60535,24.60535,0,0,0-2.961.792l-1.665-4.877a23.45486,23.45486,0,0,1,8.167-1.626,10.847,10.847,0,0,1,7.081,1.874,7.131,7.131,0,0,1,2.207,5.747Z"/><path class="cls-2" d="M70.642,43.512a5.91989,5.91989,0,0,1,1.4,1.363,5.30007,5.30007,0,0,1,1.022,3.193,5.948,5.948,0,0,1-2.961,5.245,15.66388,15.66388,0,0,1-8.5,1.915,18.97817,18.97817,0,0,1-6.366-.852,5.986,5.986,0,0,1-3.212-2.36,6.99992,6.99992,0,0,1-.91-3.677h6.134q.358.029.721.043a2.04506,2.04506,0,0,0,.308,1.193,1.874,1.874,0,0,0,1.123.62,11.36418,11.36418,0,0,0,2.438.193,5.529,5.529,0,0,0,2.806-.484,1.494,1.494,0,0,0,.716-1.3,1.337,1.337,0,0,0-.523-1.084,1.386,1.386,0,0,0-.247-.16,16.089,16.089,0,0,0,6.042-3.861"/><path class="cls-2" d="M45.30293,42.09755a.92819.92819,0,0,1-.51893-1.69824l.45105-.28418-.61694-.02148a.93071.93071,0,0,1,.01489-1.86133h.051l2.271.084a11.04992,11.04992,0,0,0,1.035,2.2627l-2.223,1.39453A.912.912,0,0,1,45.30293,42.09755Zm26.277-12.2998h0a10.998,10.998,0,0,0-1.84594-2.959,7.6617,7.6617,0,0,0,2.03894-.56152,4.2377,4.2377,0,0,0,1.969-1.56445,6.04337,6.04337,0,0,0,.43994-1.127,1.14782,1.14782,0,0,1,1.113-.86621,1.22738,1.22738,0,0,1,.286.03614,1.155,1.155,0,0,1,.825,1.40136c-.03894.1377-.078.27149-.118.39356a1.29012,1.29012,0,0,1-.005.20019,5.24375,5.24375,0,0,1-.585,1.17578,8.37115,8.37115,0,0,1-1.926,2.4004,8.93174,8.93174,0,0,1-2.194,1.47168Z"/><path class="cls-3" d="M52.77,44.88a11.026,11.026,0,0,1-5.913-6.894,2.05754,2.05754,0,0,1-.066-.248,11.015,11.015,0,0,1,1.67-8.928,13.89,13.89,0,0,1,7.86-5.541,1.82112,1.82112,0,0,1,.2-.053,13.878,13.878,0,0,1,9.578.869v.005a10.76753,10.76753,0,0,1,4.308,16.063,13.889,13.889,0,0,1-7.838,5.538,1.914,1.914,0,0,1-.239.063,13.879,13.879,0,0,1-9.557-.874Z"/><path class="cls-4" d="M58.735,46.227A13.879,13.879,0,0,1,52.77,44.88a11.028,11.028,0,0,1-5.913-6.894,2.09846,2.09846,0,0,1-.066-.248,11.019,11.019,0,0,1,1.67-8.928,13.9,13.9,0,0,1,7.86-5.541,2.03326,2.03326,0,0,1,.2-.053,13.882,13.882,0,0,1,9.578.869v.005a10.76753,10.76753,0,0,1,4.308,16.063,13.9,13.9,0,0,1-7.838,5.538,2.02779,2.02779,0,0,1-.239.063A13.88776,13.88776,0,0,1,58.735,46.227Zm2.889-22.361a11.93788,11.93788,0,0,0-4.652.939,13.082,13.082,0,0,0-6.635,5.716,9.128,9.128,0,0,0-.84,7.373,8.17,8.17,0,0,0,5.1,5.009,12,12,0,0,0,8.519-.3,13.084,13.084,0,0,0,6.645-5.717,9.128,9.128,0,0,0,.84-7.373h-.01a8.169,8.169,0,0,0-5.1-5.009A11.97189,11.97189,0,0,0,61.624,23.866Z"/><path class="cls-2" d="M69.128,27.663a10.69989,10.69989,0,0,0-3.473-2.673,12.3101,12.3101,0,0,0-4.3-1.193,13.38593,13.38593,0,0,0-4.589.388l-.143.038-.039.012a13.425,13.425,0,0,0-4.166,1.961,12.32272,12.32272,0,0,0-3.128,3.173,10.7,10.7,0,0,0-1.661,4,9.53,9.53,0,0,0,.133,4.129v.051l.017.061.017.063.015.048a9.521,9.521,0,0,0,1.953,3.638,10.69308,10.69308,0,0,0,3.435,2.627,12.312,12.312,0,0,0,4.289,1.193,13.4001,13.4001,0,0,0,4.577-.382l.055-.012.058-.017.063-.02.046-.012a13.409,13.409,0,0,0,4.156-1.963,12.30032,12.30032,0,0,0,3.12-3.168,10.6811,10.6811,0,0,0,1.672-4.049,9.52688,9.52688,0,0,0-.17-4.181h0a9.519,9.519,0,0,0-1.944-3.7m-2.593-4.471a12.70714,12.70714,0,0,1,4.125,3.176,11.517,11.517,0,0,1,2.353,4.48h0a11.515,11.515,0,0,1,.2,5.054,12.686,12.686,0,0,1-1.978,4.81,14.34787,14.34787,0,0,1-3.631,3.694,15.4108,15.4108,0,0,1-4.73,2.239h0q-.072.024-.17.051l-.14.031a15.37657,15.37657,0,0,1-5.248.435,14.32689,14.32689,0,0,1-4.989-1.382,12.72519,12.72519,0,0,1-4.079-3.123,11.519,11.519,0,0,1-2.36-4.4c-.017-.056-.032-.1-.041-.135s-.017-.07-.031-.135h0a11.52088,11.52088,0,0,1-.157-4.991,12.7,12.7,0,0,1,1.966-4.742,14.34931,14.34931,0,0,1,3.64-3.7,15.4084,15.4084,0,0,1,4.771-2.246l.126-.037.152-.036h0a15.3882,15.3882,0,0,1,5.228-.433,14.32776,14.32776,0,0,1,5,1.384Z"/><path class="cls-2" d="M60.637,41.72353a.4996.4996,0,0,1-.272-.30762A.63134.63134,0,0,1,60.716,40.664a18.98789,18.98789,0,0,0,5.911-3.84766,18.73109,18.73109,0,0,0,3.434-4.82519q-.655.52441-1.358.98144a.50151.50151,0,0,1-.405.0791.512.512,0,0,1-.332-.248.622.622,0,0,1,.224-.794,16.34358,16.34358,0,0,0,1.49-1.09961,10.166,10.166,0,0,0,1.214-1.18164l.009.00684a.53034.53034,0,0,1,.766-.084.588.588,0,0,1,0,.80762q-.22612.26075-.468.50684a.547.547,0,0,1,.17005.709,18.73354,18.73354,0,0,1-10.326,10.043.52923.52923,0,0,1-.212.04688A.48321.48321,0,0,1,60.637,41.72353ZM47.123,40.331l-.009.00586a.582.582,0,0,1-.075-.7998.55488.55488,0,0,1,.35205-.24121.56718.56718,0,0,1,.417.08789c.942.72168,3.23706.38671,5.852-.38086a56.608,56.608,0,0,0,11.075-4.78614.50094.50094,0,0,1,.406-.083.48706.48706,0,0,1,.328.25293.625.625,0,0,1-.233.792,57.88838,57.88838,0,0,1-11.37,4.92187,16.8809,16.8809,0,0,1-4.506.80567,3.6762,3.6762,0,0,1-2.23706-.57129Zm.623-1.18945a.51844.51844,0,0,1-.468-.60645,4.57644,4.57644,0,0,1,.453-.917.48393.48393,0,0,1-.036-.17871,8.889,8.889,0,0,1,3.066-5.63965,20.77869,20.77869,0,0,1,6.815-4.75586h.009a.49035.49035,0,0,1,.412.0166.50081.50081,0,0,1,.255.3252.63167.63167,0,0,1-.385.7334,19.46861,19.46861,0,0,0-6.376,4.46386,7.846,7.846,0,0,0-2.475,3.7002,16.32428,16.32428,0,0,1,2.807-1.97754h0a.49641.49641,0,0,1,.698.27246.63411.63411,0,0,1-.325.76758,14.86783,14.86783,0,0,0-2.69995,1.94629,3.965,3.965,0,0,0-1.142,1.2998.61479.61479,0,0,1-.61.544Zm7.934-5.65332a.4991.4991,0,0,1-.325-.25977.62611.62611,0,0,1,.241-.792,35.23013,35.23013,0,0,1,4.349-2.2666,31.568,31.568,0,0,1,4.431-1.59961h.01a.4945.4945,0,0,1,.62208.41211.63456.63456,0,0,1-.45.70019,30.102,30.102,0,0,0-4.27,1.53223,34.66218,34.66218,0,0,0-4.2,2.18848.50121.50121,0,0,1-.28894.09082.48769.48769,0,0,1-.11926-.002Z"/></g></g></g></svg>