<svg xmlns="http://www.w3.org/2000/svg" viewBox="0 0 58.045 44"><defs><style>.a{fill:#d95767;fill-rule:evenodd;}</style></defs><path class="a" d="M55.045,42a1,1,0,0,0,1-1V23.695l-26.272.03h-2V10.117L2,10.126V41a1,1,0,0,0,1,1ZM29.771,15.791h7.745v5.924l-7.745.009Zm10.721,0h6.024V21.7l-6.024.007V15.791Zm9,0V21.7l8.553-.01V41a3,3,0,0,1-3,3H3a3,3,0,0,1-3-3V3A3,3,0,0,1,3,0H29.771V4.888h7.745V.546h2.976V4.888h6.024V.546h2.976V4.888h7.054V7.863H49.492v4.952h7.054v2.976Zm-2.976-2.976H40.492V7.863h6.024Zm-9,0H29.771V7.863h7.745ZM13.392,6.183h2.232V3.951H13.392Zm-4.464,0H11.16V3.951H8.927V6.183Zm-4.464,0H6.7V3.951H4.463V6.183Zm23.307,1.95V2H3A1,1,0,0,0,2,3V8.134H27.771Z" transform="translate(0)"/></svg>